<svg xmlns="http://www.w3.org/2000/svg" viewBox="0 -16 403 164"><g fill="none" stroke="#12151B" stroke-width="13" stroke-linecap="round" stroke-linejoin="round"><path d="M 176 98 V 112 Q 176 130 147 127"/><path d="M 107 30 V 9"/></g><path d="M 59 30 H 155 A 37 37 0 0 1 192 67 V 67 A 37 37 0 0 1 155 104 H 59 A 37 37 0 0 1 22 67 V 67 A 37 37 0 0 1 59 30 ZM 63 49 H 151 A 18 18 0 0 1 169 67 V 67 A 18 18 0 0 1 151 85 H 63 A 18 18 0 0 1 45 67 V 67 A 18 18 0 0 1 63 49 Z" fill="#12151B" fill-rule="evenodd"/><g fill="#1F5CFF" stroke="none"><circle cx="83" cy="67" r="9.5"/><circle cx="131" cy="67" r="9.5"/></g><g fill="#1F5CFF" stroke="none"><circle cx="107" cy="0" r="10.5"/></g><g fill="none" stroke="#12151B" stroke-width="13" stroke-linecap="round" stroke-linejoin="round"><path d="M 222.5 30 L 273.5 100"/><path d="M 303.5 40 V 100"/><path d="M 333.5 40 L 354 100 L 374.5 40"/></g><g fill="#12151B" stroke="none"><circle cx="303.5" cy="23" r="7"/></g><g fill="none" stroke="#12151B" stroke-width="13" stroke-linecap="round" stroke-linejoin="round"><path d="M 273.5 30 L 222.5 100"/></g></svg>