<svg class="pipe-svg" data-cum="1" viewBox="0 0 1920 1080" xmlns="http://www.w3.org/2000/svg" role="img" aria-label="The pipeline in five boxes: a frozen paper, one record per statement, the records pointing at each other, one result and what it rests on, and a checker.">
<defs><marker id="pipeah" viewBox="0 0 10 10" refX="9" refY="5" markerWidth="7" markerHeight="7" orient="auto-start-reverse"><path d="M 0 0 L 10 5 L 0 10 z" fill="#1A1A16"/></marker><marker id="pipeaw" viewBox="0 0 10 10" refX="9" refY="5" markerWidth="7" markerHeight="7" orient="auto-start-reverse"><path d="M 0 0 L 10 5 L 0 10 z" fill="#8C4A2F"/></marker></defs>
  <g class="pp-g" data-step="0">
    <rect x="70.0" y="385.0" width="300.0" height="230.0" fill="none" stroke="#1A1A16" stroke-width="2.0"/>
    <text x="94.0" y="436.2" text-anchor="start" font-size="30" fill="#1A1A16" class="pp-t">a paper</text>
    <text x="94.0" y="512.6" text-anchor="start" font-size="21" fill="#8A8A80" class="pp-t">frozen.</text>
    <text x="94.0" y="542.6" text-anchor="start" font-size="21" fill="#8A8A80" class="pp-t">every byte fixed,</text>
    <text x="94.0" y="572.6" text-anchor="start" font-size="21" fill="#8A8A80" class="pp-t">so pointers hold.</text>
  </g>
  <g class="pp-g" data-step="1">
    <rect x="440.0" y="385.0" width="300.0" height="230.0" fill="none" stroke="#1A1A16" stroke-width="2.0"/>
    <text x="464.0" y="436.2" text-anchor="start" font-size="30" fill="#1A1A16" class="pp-t">extract</text>
    <text x="464.0" y="474.2" text-anchor="start" font-size="30" fill="#1A1A16" class="pp-t">the claims</text>
    <line x1="464.0" y1="512.0" x2="477.0" y2="512.0" stroke="#8A8A80" stroke-width="1.6"/>
    <text x="486.0" y="518.6" text-anchor="start" font-size="21" fill="#8A8A80" class="pp-t">what it says</text>
    <line x1="464.0" y1="542.0" x2="477.0" y2="542.0" stroke="#8A8A80" stroke-width="1.6"/>
    <text x="486.0" y="548.6" text-anchor="start" font-size="21" fill="#8A8A80" class="pp-t">where it came from</text>
    <line x1="464.0" y1="572.0" x2="477.0" y2="572.0" stroke="#8A8A80" stroke-width="1.6"/>
    <text x="486.0" y="578.6" text-anchor="start" font-size="21" fill="#8A8A80" class="pp-t">a fingerprint</text>
    <line x1="384.0" y1="500.0" x2="426.0" y2="500.0" stroke="#1A1A16" stroke-width="2.0" marker-end="url(#pipeah)"/>
  </g>
  <g class="pp-g" data-step="2">
    <rect x="810.0" y="385.0" width="300.0" height="230.0" fill="none" stroke="#1A1A16" stroke-width="2.0"/>
    <text x="834.0" y="436.2" text-anchor="start" font-size="30" fill="#1A1A16" class="pp-t">dependency</text>
    <text x="834.0" y="474.2" text-anchor="start" font-size="30" fill="#1A1A16" class="pp-t">graph</text>
    <line x1="846.0" y1="586.0" x2="882.0" y2="542.0" stroke="#1A1A16" stroke-width="1.7"/>
    <line x1="882.0" y1="542.0" x2="904.0" y2="510.0" stroke="#1A1A16" stroke-width="1.7"/>
    <line x1="904.0" y1="510.0" x2="954.0" y2="526.0" stroke="#1A1A16" stroke-width="1.7"/>
    <line x1="954.0" y1="526.0" x2="980.0" y2="570.0" stroke="#1A1A16" stroke-width="1.7"/>
    <line x1="920.0" y1="590.0" x2="980.0" y2="570.0" stroke="#1A1A16" stroke-width="1.7"/>
    <line x1="882.0" y1="542.0" x2="920.0" y2="590.0" stroke="#1A1A16" stroke-width="1.7"/>
    <line x1="980.0" y1="570.0" x2="1016.0" y2="538.0" stroke="#1A1A16" stroke-width="1.7"/>
    <line x1="1016.0" y1="538.0" x2="1074.0" y2="549.0" stroke="#1A1A16" stroke-width="1.7"/>
    <line x1="1044.0" y1="588.0" x2="980.0" y2="570.0" stroke="#1A1A16" stroke-width="1.7"/>
    <line x1="1044.0" y1="588.0" x2="1074.0" y2="549.0" stroke="#1A1A16" stroke-width="1.7"/>
    <circle cx="846.0" cy="586.0" r="8.0" fill="#fff" stroke="#1A1A16" stroke-width="2.1"/>
    <circle cx="882.0" cy="542.0" r="8.0" fill="#fff" stroke="#1A1A16" stroke-width="2.1"/>
    <circle cx="920.0" cy="590.0" r="8.0" fill="#fff" stroke="#1A1A16" stroke-width="2.1"/>
    <circle cx="954.0" cy="526.0" r="8.0" fill="#fff" stroke="#1A1A16" stroke-width="2.1"/>
    <circle cx="980.0" cy="570.0" r="8.0" fill="#fff" stroke="#1A1A16" stroke-width="2.1"/>
    <circle cx="1016.0" cy="538.0" r="8.0" fill="#fff" stroke="#1A1A16" stroke-width="2.1"/>
    <circle cx="1044.0" cy="588.0" r="8.0" fill="#fff" stroke="#1A1A16" stroke-width="2.1"/>
    <circle cx="1074.0" cy="549.0" r="8.0" fill="#fff" stroke="#1A1A16" stroke-width="2.1"/>
    <circle cx="904.0" cy="510.0" r="8.0" fill="#fff" stroke="#1A1A16" stroke-width="2.1"/>
    <line x1="754.0" y1="500.0" x2="796.0" y2="500.0" stroke="#1A1A16" stroke-width="2.0" marker-end="url(#pipeah)"/>
  </g>
  <g class="pp-g" data-step="3">
    <rect x="810.0" y="104.0" width="300.0" height="160.0" fill="none" stroke="#8C4A2F" stroke-width="2.0" stroke-dasharray="9 7"/>
    <text x="834.0" y="149.2" text-anchor="start" font-size="30" fill="#8C4A2F" class="pp-t">outside</text>
    <text x="834.0" y="185.2" text-anchor="start" font-size="30" fill="#8C4A2F" class="pp-t">dependency</text>
    <text x="834.0" y="225.6" text-anchor="start" font-size="21" fill="#8C4A2F" class="pp-t">nobody has fetched it</text>
    <line x1="960.0" y1="377.0" x2="960.0" y2="278.0" stroke="#8C4A2F" stroke-width="2.0" stroke-dasharray="9 7" marker-end="url(#pipeaw)"/>
  </g>
  <g class="pp-g" data-step="4">
    <rect x="1180.0" y="385.0" width="300.0" height="230.0" fill="none" stroke="#1A1A16" stroke-width="2.0"/>
    <text x="1204.0" y="436.2" text-anchor="start" font-size="30" fill="#1A1A16" class="pp-t">core claims</text>
    <text x="1204.0" y="474.2" text-anchor="start" font-size="30" fill="#1A1A16" class="pp-t">+ dependencies</text>
    <line x1="1216.0" y1="586.0" x2="1252.0" y2="542.0" stroke="#1A1A16" stroke-width="1.3" opacity=".13"/>
    <line x1="1252.0" y1="542.0" x2="1274.0" y2="510.0" stroke="#1A1A16" stroke-width="1.3" opacity=".13"/>
    <line x1="1274.0" y1="510.0" x2="1324.0" y2="526.0" stroke="#1A1A16" stroke-width="1.3" opacity=".13"/>
    <line x1="1324.0" y1="526.0" x2="1350.0" y2="570.0" stroke="#1A1A16" stroke-width="1.3" opacity=".13"/>
    <line x1="1290.0" y1="590.0" x2="1350.0" y2="570.0" stroke="#1A1A16" stroke-width="1.3" opacity=".13"/>
    <line x1="1252.0" y1="542.0" x2="1290.0" y2="590.0" stroke="#1A1A16" stroke-width="1.3" opacity=".13"/>
    <circle cx="1216.0" cy="586.0" r="8.0" fill="#fff" stroke="#1A1A16" stroke-width="1.7" opacity=".13"/>
    <circle cx="1252.0" cy="542.0" r="8.0" fill="#fff" stroke="#1A1A16" stroke-width="1.7" opacity=".13"/>
    <circle cx="1290.0" cy="590.0" r="8.0" fill="#fff" stroke="#1A1A16" stroke-width="1.7" opacity=".13"/>
    <circle cx="1324.0" cy="526.0" r="8.0" fill="#fff" stroke="#1A1A16" stroke-width="1.7" opacity=".13"/>
    <circle cx="1274.0" cy="510.0" r="8.0" fill="#fff" stroke="#1A1A16" stroke-width="1.7" opacity=".13"/>
    <line x1="1350.0" y1="570.0" x2="1386.0" y2="538.0" stroke="#1A1A16" stroke-width="2.4"/>
    <line x1="1386.0" y1="538.0" x2="1444.0" y2="549.0" stroke="#1A1A16" stroke-width="2.4"/>
    <line x1="1414.0" y1="588.0" x2="1350.0" y2="570.0" stroke="#1A1A16" stroke-width="2.4"/>
    <line x1="1414.0" y1="588.0" x2="1444.0" y2="549.0" stroke="#1A1A16" stroke-width="2.4"/>
    <circle cx="1350.0" cy="570.0" r="8.0" fill="#fff" stroke="#1A1A16" stroke-width="2.8"/>
    <circle cx="1386.0" cy="538.0" r="8.0" fill="#fff" stroke="#1A1A16" stroke-width="2.8"/>
    <circle cx="1414.0" cy="588.0" r="8.0" fill="#fff" stroke="#1A1A16" stroke-width="2.8"/>
    <circle cx="1444.0" cy="549.0" r="12.0" fill="#fff" stroke="#1A1A16" stroke-width="2.8"/>
    <line x1="1124.0" y1="500.0" x2="1166.0" y2="500.0" stroke="#1A1A16" stroke-width="2.0" marker-end="url(#pipeah)"/>
  </g>
  <g class="pp-g" data-step="5">
    <rect x="1550.0" y="385.0" width="300.0" height="230.0" fill="none" stroke="#1A1A16" stroke-width="2.0"/>
    <text x="1574.0" y="436.2" text-anchor="start" font-size="30" fill="#1A1A16" class="pp-t">auto-</text>
    <text x="1574.0" y="474.2" text-anchor="start" font-size="30" fill="#1A1A16" class="pp-t">formalization</text>
    <text x="1574.0" y="512.6" text-anchor="start" font-size="21" fill="#8A8A80" class="pp-t">a kernel does not</text>
    <text x="1574.0" y="542.6" text-anchor="start" font-size="21" fill="#8A8A80" class="pp-t">negotiate, and it</text>
    <text x="1574.0" y="572.6" text-anchor="start" font-size="21" fill="#8A8A80" class="pp-t">does not tire.</text>
    <line x1="1494.0" y1="500.0" x2="1536.0" y2="500.0" stroke="#1A1A16" stroke-width="2.0" marker-end="url(#pipeah)"/>
  </g>
  <g class="pp-g" data-step="6">
    <line x1="1700.0" y1="615.0" x2="1700.0" y2="676.0" stroke="#1A1A16" stroke-width="2.0"/>
    <line x1="1382.5" y1="676.0" x2="1707.5" y2="676.0" stroke="#1A1A16" stroke-width="2.0"/>
    <line x1="1382.5" y1="676.0" x2="1382.5" y2="711.0" stroke="#1A1A16" stroke-width="2.0" marker-end="url(#pipeah)"/>
    <line x1="1707.5" y1="676.0" x2="1707.5" y2="711.0" stroke="#1A1A16" stroke-width="2.0" marker-end="url(#pipeah)"/>
    <rect x="1250.0" y="725.0" width="265.0" height="150.0" fill="none" stroke="#1A1A16" stroke-width="2.0"/>
    <text x="1272.0" y="778.2" text-anchor="start" font-size="30" fill="#1A1A16" class="pp-t">it holds</text>
    <text x="1272.0" y="819.8" text-anchor="start" font-size="20" fill="#8A8A80" class="pp-t">every step</text>
    <text x="1272.0" y="847.8" text-anchor="start" font-size="20" fill="#8A8A80" class="pp-t">was accepted</text>
    <rect x="1565.0" y="725.0" width="285.0" height="150.0" fill="none" stroke="#1A1A16" stroke-width="3.6"/>
    <text x="1587.0" y="778.2" text-anchor="start" font-size="30" fill="#1A1A16" font-weight="700" class="pp-t">it does not</text>
    <text x="1587.0" y="819.8" text-anchor="start" font-size="20" fill="#8A8A80" class="pp-t">and it names</text>
    <text x="1587.0" y="847.8" text-anchor="start" font-size="20" fill="#8A8A80" class="pp-t">what is missing</text>
    <line x1="1707.5" y1="875.0" x2="1707.5" y2="958.0" stroke="#1A1A16" stroke-width="2.0"/>
    <line x1="1707.5" y1="958.0" x2="590.0" y2="958.0" stroke="#1A1A16" stroke-width="2.0"/>
    <line x1="590.0" y1="958.0" x2="590.0" y2="629.0" stroke="#1A1A16" stroke-width="2.0" marker-end="url(#pipeah)"/>
    <text x="616.0" y="940.8" text-anchor="start" font-size="20" fill="#8A8A80" class="pp-t">what is missing goes back in</text>
  </g>
</svg>